<svg xmlns="http://www.w3.org/2000/svg" viewBox="0 0 259.01 249.54"><defs><style>.cls-1{stroke:#fff;stroke-width:2px;}.cls-1,.cls-3{stroke-miterlimit:10;}.cls-2{fill:#fff;}.cls-3{stroke:#000;stroke-width:5px;}</style></defs><title>자산 1</title><g id="레이어_2" data-name="레이어 2"><g id="레이어_1-2" data-name="레이어 1"><path d="M199.29.07c-25.33,16.85-39.58,29.31-59,52l-3,2a47.72,47.72,0,0,0-10-.9s-8.35.25-10,.83l-3-2c-19.43-22.7-33.67-35.15-59-52-27.06,15.8-35.47,127.24-34,143,.21,28.2,3.77,37.5,8,43,9.91,14.65,31,23.37,56,30a188.24,188.24,0,0,0,42,3.94s27.85-.87,42-3.87c25-6.63,46.09-15.35,56-30,4.23-5.5,7.79-14.8,8-43C234.75,127.32,226.34,15.88,199.29.07Z"/><path class="cls-1" d="M166.16,191.44l-13.62.83-.29-4.81a24.88,24.88,0,1,0-49.66,3.06l.3,4.81-13.61.85,3.51,52.32,78-3Zm-33.49,30.2.62,10-4.72.29-.62-10a7.09,7.09,0,1,1,4.72-.29Zm13.47-29-36.84,2.27-.11-1.79c-.76-12.28,6.87-22.75,17-23.38s19,8.83,19.79,21.11Z"/><path class="cls-2" d="M61.61,149.1c22.06.08,43.85-10.84,40.3-22.42-3.17-10.31-11.58-18.26-28.34-23.89-8.81-3-32.82,18.6-32.78,24.33C40.8,130.23,45.8,149.05,61.61,149.1Z"/><path class="cls-2" d="M104.82,158.22c-1.13,6.07,3.57,11.13,9.48,11.62s11.09-3.61,14.16-8.42h-3.88a18.86,18.86,0,0,0,4.57,5.25,13.48,13.48,0,0,0,5.56,2.33,14.41,14.41,0,0,0,11.75-3,2.27,2.27,0,0,0,0-3.18,2.3,2.3,0,0,0-3.19,0,9.56,9.56,0,0,1-7.69,1.77c-3.36-.67-5.31-2.67-7.12-5.45a2.27,2.27,0,0,0-3.88,0c-2,3.15-5.12,6.08-9.07,6.22-3.2.11-7-2.26-6.36-6a2.31,2.31,0,0,0-1.57-2.77,2.26,2.26,0,0,0-2.76,1.57Z"/><circle class="cls-2" cx="129.29" cy="215" r="7"/><path class="cls-3" d="M191.79,164.5l67,6Z"/><path class="cls-3" d="M191.65,171.93l61.5,27.25Z"/><path class="cls-3" d="M67.22,165.32l-67,6Z"/><path class="cls-3" d="M67.36,172.75,5.86,200Z"/><path class="cls-2" d="M193.2,149.48c-22,.08-43.85-10.84-40.3-22.42,3.17-10.31,11.58-18.26,28.34-23.89,8.81-3,32.82,18.6,32.78,24.33C214,130.6,209,149.42,193.2,149.48Z"/><path d="M172.49,122.91a62.31,62.31,0,0,1,1-11.58,25.46,25.46,0,0,1,2.71-8c1.14-1.91,2.43-2.84,3.85-2.78a4.47,4.47,0,0,1,1.79.48c2.27,3.08,1.19,1.89,2.52,5.26a150,150,0,0,1,2.08,15.21q.76,8.4.72,16.58a40.87,40.87,0,0,1-1.28,11.06q-1.24,4.23-3.51,4.14-2.52-.1-4.83-4.69a45.26,45.26,0,0,1-3.72-11.62A70.43,70.43,0,0,1,172.49,122.91Z"/><path d="M68.15,123.13a63.21,63.21,0,0,1,1-11.58,25.21,25.21,0,0,1,2.71-8q1.71-2.86,3.85-2.77a4.34,4.34,0,0,1,1.79.47c2.27,3.08,1.18,1.89,2.52,5.26q1.32,6.81,2.08,15.21t.72,16.58a40.87,40.87,0,0,1-1.28,11.06q-1.24,4.24-3.51,4.14-2.52-.1-4.84-4.68a45.89,45.89,0,0,1-3.71-11.63A70.45,70.45,0,0,1,68.15,123.13Z"/></g></g></svg>